<?xml version="1.0" encoding="UTF-8" standalone="no"?>
<!DOCTYPE svg PUBLIC "-//W3C//DTD SVG 1.1//EN" "http://www.w3.org/Graphics/SVG/1.1/DTD/svg11.dtd">
<svg width="100%" height="100%" viewBox="0 0 280 201" version="1.1" xmlns="http://www.w3.org/2000/svg" xmlns:xlink="http://www.w3.org/1999/xlink" xml:space="preserve" xmlns:serif="http://www.serif.com/" style="fill-rule:evenodd;clip-rule:evenodd;stroke-linejoin:round;stroke-miterlimit:2;">
    <g transform="matrix(1,0,0,1,-87.1899,0)">
        <g id="Exports" transform="matrix(0.145609,0,0,0.1854,-780.855,0)">
            <rect x="5961.5" y="0" width="1920" height="1080" style="fill:none;"/>
            <clipPath id="_clip1">
                <rect x="5961.5" y="0" width="1920" height="1080"/>
            </clipPath>
            <g clip-path="url(#_clip1)">
                <g transform="matrix(4.99737,0,0,3.92481,-6911.73,-1509.05)">
                    <g transform="matrix(0.845069,0,0,0.793892,428.865,108.788)">
                        <rect x="2546.7" y="611.778" width="442.806" height="12.596"/>
                    </g>
                    <g transform="matrix(1.45037,0,0,1.45037,-1249.79,-275.375)">
                        <circle cx="2770.25" cy="622.655" r="8.992"/>
                    </g>
                    <g transform="matrix(1,0,0,1,-330.431,94.7292)">
                        <path d="M3290.63,289.76L2906.43,289.76L2906.43,564.932L3290.63,564.932L3290.63,289.76ZM2916.43,299.76L2916.43,554.932L3280.63,554.932L3280.63,299.76L2916.43,299.76Z"/>
                    </g>
                    <g transform="matrix(1.35003,0,0,1.61723,-1318.04,-416.387)">
                        <path d="M3013.03,617.496L2998.35,602.822L3026.7,543.084L3055.05,602.822L3040.37,617.496L3013.03,617.496ZM3007.71,601.568L3016.84,610.698L3036.56,610.698L3045.69,601.568L3026.7,561.543L3007.71,601.568Z"/>
                    </g>
                    <g transform="matrix(1.37427,0,0,1.37427,-1404.44,-271.31)">
                        <rect x="3033.19" y="548.308" width="6" height="40.494"/>
                    </g>
                    <g transform="matrix(1.01722,0,0,1.01722,-324.491,-68.5104)">
                        <circle cx="3040.23" cy="596.106" r="7.303"/>
                    </g>
                    <g transform="matrix(1.01722,0,0,1.01722,-324.491,-68.5104)">
                        <path d="M3040.23,588.803C3044.26,588.803 3047.53,592.075 3047.53,596.106C3047.53,600.136 3044.26,603.409 3040.23,603.409C3036.2,603.409 3032.93,600.136 3032.93,596.106C3032.93,592.075 3036.2,588.803 3040.23,588.803ZM3040.23,596.909C3039.78,596.909 3039.43,596.549 3039.43,596.106C3039.43,595.663 3039.78,595.303 3040.23,595.303C3040.67,595.303 3041.03,595.663 3041.03,596.106C3041.03,596.549 3040.67,596.909 3040.23,596.909Z"/>
                    </g>
                    <g transform="matrix(2.30648,0,0,2.30648,-4230.12,-762.02)">
                        <path d="M3041.6,509.943L3026.7,509.943L3026.7,524.839L3041.6,524.839L3041.6,509.943ZM3030.28,513.518L3030.28,521.264L3038.02,521.264L3038.02,513.518L3030.28,513.518Z"/>
                    </g>
                    <g transform="matrix(2.30648,0,0,2.30648,-4350.29,-634.905)">
                        <path d="M3041.6,509.943L3026.7,509.943L3026.7,524.839L3041.6,524.839L3041.6,509.943ZM3030.28,513.518L3030.28,521.264L3038.02,521.264L3038.02,513.518L3030.28,513.518Z"/>
                    </g>
                    <g transform="matrix(-2.30648,0,0,2.30648,9887.57,-634.905)">
                        <path d="M3041.6,509.943L3026.7,509.943L3026.7,524.839L3041.6,524.839L3041.6,509.943ZM3038.02,513.518L3038.02,521.264L3030.28,521.264L3030.28,513.518L3038.02,513.518Z"/>
                    </g>
                    <g transform="matrix(1.14502,0,0,1.37427,-708.409,-271.31)">
                        <path d="M2935.16,594.524C2938.15,572.692 2952.92,519.75 3027.44,515.954L3026.9,508.605C2945.97,512.727 2929.62,569.98 2926.38,593.692L2935.16,594.524Z"/>
                    </g>
                    <g transform="matrix(-1.14502,0,0,1.37427,6244.61,-271.31)">
                        <path d="M2926.38,593.692C2929.62,569.98 2945.97,512.727 3026.9,508.605L3027.44,515.954C2952.92,519.75 2938.15,572.692 2935.16,594.524L2926.38,593.692Z"/>
                    </g>
                    <g transform="matrix(1.20962,0,0,1.37427,-902.478,-268.612)">
                        <rect x="3048.69" y="506.323" width="75.726" height="6"/>
                    </g>
                    <g transform="matrix(-1.20962,0,0,1.37427,6438.68,-268.612)">
                        <rect x="3048.69" y="506.323" width="75.726" height="6"/>
                    </g>
                    <g transform="matrix(1.40648,0,0,1.40648,-1522.27,-293.559)">
                        <path d="M3136.63,503.18C3143.37,503.18 3148.84,508.652 3148.84,515.393C3148.84,522.134 3143.37,527.607 3136.63,527.607C3129.89,527.607 3124.42,522.134 3124.42,515.393C3124.42,508.652 3129.89,503.18 3136.63,503.18ZM3136.63,509.042C3140.14,509.042 3142.98,511.888 3142.98,515.393C3142.98,518.899 3140.14,521.745 3136.63,521.745C3133.13,521.745 3130.28,518.899 3130.28,515.393C3130.28,511.888 3133.13,509.042 3136.63,509.042Z"/>
                    </g>
                    <g transform="matrix(-1.40648,0,0,1.40648,7058.48,-293.559)">
                        <path d="M3136.63,503.18C3143.37,503.18 3148.84,508.652 3148.84,515.393C3148.84,522.134 3143.37,527.607 3136.63,527.607C3129.89,527.607 3124.42,522.134 3124.42,515.393C3124.42,508.652 3129.89,503.18 3136.63,503.18ZM3136.63,509.042C3133.13,509.042 3130.28,511.888 3130.28,515.393C3130.28,518.899 3133.13,521.745 3136.63,521.745C3140.14,521.745 3142.98,518.899 3142.98,515.393C3142.98,511.888 3140.14,509.042 3136.63,509.042Z"/>
                    </g>
                </g>
            </g>
        </g>
    </g>
</svg>
