<?xml version="1.0" encoding="UTF-8" standalone="no"?>
<!DOCTYPE svg PUBLIC "-//W3C//DTD SVG 1.1//EN" "http://www.w3.org/Graphics/SVG/1.1/DTD/svg11.dtd">
<svg width="100%" height="100%" viewBox="0 0 280 201" version="1.1" xmlns="http://www.w3.org/2000/svg" xmlns:xlink="http://www.w3.org/1999/xlink" xml:space="preserve" xmlns:serif="http://www.serif.com/" style="fill-rule:evenodd;clip-rule:evenodd;stroke-linejoin:round;stroke-miterlimit:2;">
    <g transform="matrix(1,0,0,1,-87.1899,0)">
        <g id="Exports" transform="matrix(0.145609,0,0,0.1854,-780.855,0)">
            <rect x="5961.5" y="0" width="1920" height="1080" style="fill:none;"/>
            <clipPath id="_clip1">
                <rect x="5961.5" y="0" width="1920" height="1080"/>
            </clipPath>
            <g clip-path="url(#_clip1)">
                <g transform="matrix(4.99737,0,0,3.92481,-8128.75,-1752.36)">
                    <g transform="matrix(1.23567,0,0,1.23567,-698.049,-135.337)">
                        <path d="M3002.16,520.33C3045.51,520.33 3080.71,555.527 3080.71,598.88C3080.71,642.234 3045.51,677.431 3002.16,677.431C2958.8,677.431 2923.61,642.234 2923.61,598.88C2923.61,555.527 2958.8,520.33 3002.16,520.33ZM3002.16,528.423C3041.05,528.423 3072.62,559.994 3072.62,598.88C3072.62,637.767 3041.05,669.338 3002.16,669.338C2963.27,669.338 2931.7,637.767 2931.7,598.88C2931.7,559.994 2963.27,528.423 3002.16,528.423Z"/>
                    </g>
                    <g transform="matrix(0.873581,0,0,0.873581,389.006,81.5123)">
                        <path d="M3002.16,520.33C3045.51,520.33 3080.71,555.527 3080.71,598.88C3080.71,642.234 3045.51,677.431 3002.16,677.431C2958.8,677.431 2923.61,642.234 2923.61,598.88C2923.61,555.527 2958.8,520.33 3002.16,520.33ZM3002.16,531.777C3039.19,531.777 3069.26,561.845 3069.26,598.88C3069.26,635.916 3039.19,665.984 3002.16,665.984C2965.12,665.984 2935.05,635.916 2935.05,598.88C2935.05,561.845 2965.12,531.777 3002.16,531.777Z"/>
                    </g>
                    <g transform="matrix(0.840224,0,0,1,452.091,0)">
                        <rect x="2829.53" y="529.19" width="145.459" height="10"/>
                    </g>
                    <g transform="matrix(0.861409,0,0,1,658.449,0)">
                        <rect x="2799.22" y="529.19" width="150.196" height="10"/>
                    </g>
                    <g transform="matrix(1.73194,0,0,1,-2207.87,-4.85026)">
                        <path d="M3108.7,477.259L3069.72,477.259L3069.72,516.232L3108.7,516.232L3108.7,477.259ZM3075.5,487.259L3075.5,506.232L3102.92,506.232L3102.92,487.259L3075.5,487.259Z"/>
                    </g>
                    <g transform="matrix(1.73194,0,0,0.75663,-2338.68,111.3)">
                        <path d="M3108.7,477.259L3069.72,477.259L3069.72,516.232L3108.7,516.232L3108.7,477.259ZM3075.5,490.475L3075.5,503.016L3102.92,503.016L3102.92,490.475L3075.5,490.475Z"/>
                    </g>
                    <g transform="matrix(1.73194,0,0,1,-2497.03,-30.7751)">
                        <path d="M3108.7,477.259L3069.72,477.259L3069.72,516.232L3108.7,516.232L3108.7,477.259ZM3075.5,487.259L3075.5,506.232L3102.92,506.232L3102.92,487.259L3075.5,487.259Z"/>
                    </g>
                    <path d="M2897.03,446.484L3203.73,446.484L3203.73,721.656L2819.53,721.656L2819.53,495.457L2897.03,495.473L2897.03,456.484L2897.03,456.484L2897.03,446.484ZM2829.53,505.473L2829.53,711.656L3193.73,711.656L3193.73,456.484L2907.03,456.484L2907.03,505.473L2829.53,505.473Z"/>
                </g>
            </g>
        </g>
    </g>
</svg>
