<?xml version="1.0" encoding="UTF-8" standalone="no"?>
<!DOCTYPE svg PUBLIC "-//W3C//DTD SVG 1.1//EN" "http://www.w3.org/Graphics/SVG/1.1/DTD/svg11.dtd">
<svg width="100%" height="100%" viewBox="0 0 280 201" version="1.1" xmlns="http://www.w3.org/2000/svg" xmlns:xlink="http://www.w3.org/1999/xlink" xml:space="preserve" xmlns:serif="http://www.serif.com/" style="fill-rule:evenodd;clip-rule:evenodd;stroke-linejoin:round;stroke-miterlimit:2;">
    <g transform="matrix(1,0,0,1,-87.1899,0)">
        <g id="Exports" transform="matrix(0.145609,0,0,0.1854,-780.855,0)">
            <rect x="5961.5" y="0" width="1920" height="1080" style="fill:none;"/>
            <clipPath id="_clip1">
                <rect x="5961.5" y="0" width="1920" height="1080"/>
            </clipPath>
            <g clip-path="url(#_clip1)">
                <g transform="matrix(4.99737,0,0,3.92481,-6911.73,-1509.05)">
                    <g transform="matrix(1,0,0,1,-330.431,94.7292)">
                        <path d="M3290.63,289.76L2906.43,289.76L2906.43,564.932L3290.63,564.932L3290.63,289.76ZM2916.43,299.76L2916.43,554.932L3280.63,554.932L3280.63,299.76L2916.43,299.76Z"/>
                    </g>
                    <g transform="matrix(1.77523,0,0,1.77523,-2337.46,-686.376)">
                        <path d="M2848.87,617.33C2883.86,617.33 2912.27,645.738 2912.27,680.729C2912.27,715.719 2883.86,744.128 2848.87,744.128C2813.88,744.128 2785.47,715.719 2785.47,680.729C2785.47,645.738 2813.88,617.33 2848.87,617.33ZM2848.87,623.523C2880.45,623.523 2906.08,649.156 2906.08,680.729C2906.08,712.301 2880.45,737.934 2848.87,737.934C2817.3,737.934 2791.67,712.301 2791.67,680.729C2791.67,649.156 2817.3,623.523 2848.87,623.523Z"/>
                    </g>
                    <g transform="matrix(0.49215,0,0,0.49215,1317.87,187.054)">
                        <path d="M2848.87,617.33C2883.86,617.33 2912.27,645.738 2912.27,680.729C2912.27,715.719 2883.86,744.128 2848.87,744.128C2813.88,744.128 2785.47,715.719 2785.47,680.729C2785.47,645.738 2813.88,617.33 2848.87,617.33ZM2848.87,639.669C2871.53,639.669 2889.93,658.067 2889.93,680.729C2889.93,703.39 2871.53,721.789 2848.87,721.789C2826.21,721.789 2807.81,703.39 2807.81,680.729C2807.81,658.067 2826.21,639.669 2848.87,639.669Z"/>
                    </g>
                    <g transform="matrix(0.49215,0,0,0.49215,1495.63,133.244)">
                        <path d="M2848.87,617.33C2883.86,617.33 2912.27,645.738 2912.27,680.729C2912.27,715.719 2883.86,744.128 2848.87,744.128C2813.88,744.128 2785.47,715.719 2785.47,680.729C2785.47,645.738 2813.88,617.33 2848.87,617.33ZM2848.87,639.669C2871.53,639.669 2889.93,658.067 2889.93,680.729C2889.93,703.39 2871.53,721.789 2848.87,721.789C2826.21,721.789 2807.81,703.39 2807.81,680.729C2807.81,658.067 2826.21,639.669 2848.87,639.669Z"/>
                    </g>
                    <g transform="matrix(1.21841,0,0,1.37427,-715.585,-396.78)">
                        <path d="M2991.19,586.718L2939.97,586.718L2939.97,614.555L2991.19,614.555L2991.19,586.718ZM2948.99,594.718L2948.99,606.555L2982.16,606.555L2982.16,594.718L2948.99,594.718Z"/>
                    </g>
                    <g transform="matrix(1.37427,0,0,1.37427,-1181.78,-396.78)">
                        <path d="M2964.48,696.917L2964.48,614.555L2972.48,614.555L2972.48,700.422L2952.71,718.647L2947.29,712.766L2964.48,696.917Z"/>
                    </g>
                    <g transform="matrix(1.18695,-1.03299,0.672456,0.772683,-1122.7,3061.59)">
                        <path d="M2953.18,719.639L2916.88,719.639L2916.88,755.944L2953.18,755.944L2953.18,719.639ZM2923.86,730.372L2923.86,745.211L2946.19,745.211L2946.19,730.372L2923.86,730.372Z"/>
                    </g>
                </g>
            </g>
        </g>
    </g>
</svg>
