<?xml version="1.0" encoding="UTF-8" standalone="no"?>
<!DOCTYPE svg PUBLIC "-//W3C//DTD SVG 1.1//EN" "http://www.w3.org/Graphics/SVG/1.1/DTD/svg11.dtd">
<svg width="100%" height="100%" viewBox="0 0 280 201" version="1.1" xmlns="http://www.w3.org/2000/svg" xmlns:xlink="http://www.w3.org/1999/xlink" xml:space="preserve" xmlns:serif="http://www.serif.com/" style="fill-rule:evenodd;clip-rule:evenodd;stroke-linejoin:round;stroke-miterlimit:2;">
    <g transform="matrix(1,0,0,1,-87.1899,0)">
        <g id="Exports" transform="matrix(0.145609,0,0,0.1854,-780.855,0)">
            <rect x="5961.5" y="0" width="1920" height="1080" style="fill:none;"/>
            <clipPath id="_clip1">
                <rect x="5961.5" y="0" width="1920" height="1080"/>
            </clipPath>
            <g clip-path="url(#_clip1)">
                <g transform="matrix(4.99737,0,0,3.92481,-6911.73,-1509.05)">
                    <g transform="matrix(0.845069,0,0,0.793892,428.865,108.788)">
                        <rect x="2546.7" y="611.778" width="442.806" height="12.596"/>
                    </g>
                    <g transform="matrix(1.45037,0,0,1.45037,-1249.79,-275.375)">
                        <circle cx="2770.25" cy="622.655" r="8.992"/>
                    </g>
                    <g transform="matrix(162.986,0,0,162.986,2667.71,550.232)">
                        <path d="M0.158,-0.325L0.034,-0.325L0.361,-0.525L0.361,-0.445L0.158,-0.325ZM0.361,-0.125L0.034,-0.325L0.158,-0.325L0.361,-0.206L0.361,-0.125Z" style="fill-rule:nonzero;"/>
                    </g>
                    <g transform="matrix(162.986,0,0,162.986,2736.87,550.232)">
                        <path d="M0.066,0.135L0,0.135L0.349,-0.794L0.415,-0.794L0.066,0.135Z" style="fill-rule:nonzero;"/>
                    </g>
                    <g transform="matrix(162.986,0,0,162.986,2798.54,550.232)">
                        <path d="M0.068,-0.525L0.395,-0.325L0.271,-0.325L0.068,-0.445L0.068,-0.525ZM0.271,-0.325L0.395,-0.325L0.068,-0.125L0.068,-0.206L0.271,-0.325Z" style="fill-rule:nonzero;"/>
                    </g>
                    <g transform="matrix(1,0,0,1,-330.431,94.7292)">
                        <path d="M3290.63,289.76L2906.43,289.76L2906.43,564.932L3290.63,564.932L3290.63,289.76ZM2916.43,299.76L2916.43,554.932L3280.63,554.932L3280.63,299.76L2916.43,299.76Z"/>
                    </g>
                </g>
            </g>
        </g>
    </g>
</svg>
