<?xml version="1.0" encoding="UTF-8" standalone="no"?>
<!DOCTYPE svg PUBLIC "-//W3C//DTD SVG 1.1//EN" "http://www.w3.org/Graphics/SVG/1.1/DTD/svg11.dtd">
<svg width="100%" height="100%" viewBox="0 0 300 184" version="1.1" xmlns="http://www.w3.org/2000/svg" xmlns:xlink="http://www.w3.org/1999/xlink" xml:space="preserve" xmlns:serif="http://www.serif.com/" style="fill-rule:evenodd;clip-rule:evenodd;stroke-linejoin:round;stroke-miterlimit:2;">
    <g transform="matrix(0.588323,0,0,0.588325,-560.264,-84.512)">
        <g id="ico-dot" serif:id="ico dot">
            <g>
                <g>
                    <g transform="matrix(1,0,0,1,452.264,-127.499)">
                        <path d="M553.32,387.144L500.044,387.144L500.044,369.385L624.355,369.385L624.355,387.144L571.079,387.144L571.079,582.489L553.32,582.489L553.32,387.144Z" style="fill-rule:nonzero;"/>
                    </g>
                    <g transform="matrix(1,0,0,1,443.848,-127.499)">
                        <path d="M876.811,508.435L892.794,516.427C887.584,529.213 879.771,540.815 869.352,551.233C848.515,572.07 823.357,582.489 793.878,582.489C764.399,582.489 739.27,572.1 718.493,551.322C697.715,530.545 687.327,505.416 687.327,475.937C687.327,446.458 697.715,421.329 718.493,400.552C739.27,379.774 764.399,369.385 793.878,369.385C823.357,369.385 848.515,379.745 869.352,400.463C879.771,411 887.584,422.661 892.794,435.447L876.811,443.439C872.43,432.31 865.741,422.188 856.744,413.072C839.34,395.786 818.385,387.144 793.878,387.144C769.371,387.144 748.446,395.816 731.101,413.16C713.757,430.505 705.085,451.43 705.085,475.937C705.085,500.444 713.757,521.369 731.101,538.714C748.446,556.058 769.371,564.73 793.878,564.73C818.385,564.73 839.34,556.028 856.744,538.625C865.741,529.627 872.43,519.564 876.811,508.435Z" style="fill-rule:nonzero;"/>
                    </g>
                    <g transform="matrix(1,0,0,1,-76.5163,-55.1656)">
                        <rect x="1520.99" y="492.396" width="17.759" height="17.759"/>
                    </g>
                    <g transform="matrix(1,0,0,1,0,-36)">
                        <path d="M1350.64,277.886L1300.39,277.886C1260.73,253.186 1208.07,252.57 1167.42,277.886L1117.17,277.886L1175.54,179.711L1292.28,179.711C1311.73,212.436 1331.19,245.161 1350.64,277.886ZM1183.5,193.711L1141.78,263.886L1163.52,263.886C1163.87,263.68 1164.22,263.477 1164.58,263.273C1206.74,239.206 1261.48,238.964 1304.27,263.868L1326.03,263.886L1284.31,193.711L1183.5,193.711Z" style="fill-rule:nonzero;"/>
                    </g>
                    <g transform="matrix(0.72898,0,0,0.698113,294.165,42.4393)">
                        <path d="M1062.82,262.024L942.398,262.024L942.398,196.898L1062.82,196.898L1062.82,262.024ZM961.603,216.952L961.603,241.97L1043.61,241.97L1043.61,216.952L961.603,216.952Z" style="fill-rule:nonzero;"/>
                    </g>
                    <g transform="matrix(0.970864,0,0,0.970864,40.6693,-24.7991)">
                        <path d="M1234.16,307.167C1262.95,307.303 1291,324.904 1303.56,350.95C1314.4,373.441 1313.39,401.236 1300.93,422.887C1285.08,450.448 1251.39,466.483 1219.29,460.325C1187.94,454.313 1161.68,427.351 1157.32,394.756C1153,362.465 1171.21,328.207 1201.69,314.191C1211.7,309.592 1222.71,307.219 1233.66,307.167C1233.82,307.166 1233.99,307.166 1234.16,307.167ZM1233.7,321.587C1206.17,321.716 1179.8,341.786 1172.94,369.108C1167.66,390.165 1174.25,413.819 1189.74,429.136C1206.87,446.064 1234.08,451.954 1256.94,442.932C1274.71,435.916 1288.93,420.37 1294.27,402.011C1302.5,373.712 1288.27,340.457 1260.44,327.453C1252.11,323.558 1242.89,321.572 1233.7,321.587Z" style="fill-rule:nonzero;"/>
                    </g>
                    <g transform="matrix(0.92491,0,0,0.92491,319.707,-194.418)">
                        <path d="M1044.21,589.052C1044.21,559.837 1020.53,536.154 991.313,536.154L991.313,568.137C1002.86,568.137 1012.23,577.501 1012.23,589.052L1044.21,589.052Z"/>
                    </g>
                    <g transform="matrix(1,0,0,1,-76.5163,-179.452)">
                        <path d="M1520.99,492.396L1520.99,439.096L1467.71,439.096L1467.71,421.338L1538.75,421.338L1538.75,492.396L1520.99,492.396Z" style="fill-rule:nonzero;"/>
                    </g>
                </g>
            </g>
        </g>
    </g>
</svg>
