<?xml version="1.0" encoding="UTF-8" standalone="no"?>
<!DOCTYPE svg PUBLIC "-//W3C//DTD SVG 1.1//EN" "http://www.w3.org/Graphics/SVG/1.1/DTD/svg11.dtd">
<svg width="100%" height="100%" viewBox="0 0 653 247" version="1.1" xmlns="http://www.w3.org/2000/svg" xmlns:xlink="http://www.w3.org/1999/xlink" xml:space="preserve" xmlns:serif="http://www.serif.com/" style="fill-rule:evenodd;clip-rule:evenodd;stroke-linejoin:round;stroke-miterlimit:2;">
    <g transform="matrix(1,0,0,1,-3982.17,-1.11779e-13)">
        <g id="Exports" transform="matrix(0.34,0,0,0.22848,1955.26,1.11779e-13)">
            <rect x="5961.5" y="0" width="1920" height="1080" style="fill:none;"/>
            <clipPath id="_clip1">
                <rect x="5961.5" y="0" width="1920" height="1080"/>
            </clipPath>
            <g clip-path="url(#_clip1)">
                <g transform="matrix(2.94118,0,0,4.37675,4097.97,-1813.73)">
                    <path d="M1286.4,416.621L633.6,416.621L633.6,663.379L1286.4,663.379L1286.4,416.621ZM1202.38,462.426L1202.38,617.574L1209.18,617.574L1209.18,462.426L1202.38,462.426ZM710.817,462.426L710.817,617.574L717.617,617.574L717.617,462.426L710.817,462.426ZM1091.85,567.972L1086.33,565.899L1086.33,564.862L1099.45,564.862L1099.45,565.899L1093.93,567.972L1093.93,614.265L1091.85,614.265L1059.73,576.608L1059.73,610.119L1065.25,612.192L1065.25,613.228L1052.13,613.228L1052.13,612.192L1057.65,610.119L1057.65,567.281L1052.82,565.899L1052.82,564.862L1060.07,564.862C1061.45,564.862 1062.65,565.012 1063.66,565.312C1064.68,565.611 1065.56,566.002 1066.32,566.486C1067.08,566.97 1067.74,567.5 1068.29,568.075C1068.85,568.651 1069.33,569.192 1069.74,569.699L1091.85,595.609L1091.85,567.972ZM790.443,563.826C792.056,563.826 793.541,564.068 794.9,564.552C796.259,565.035 797.422,565.553 798.389,566.106C799.541,566.751 800.554,567.488 801.429,568.317C801.798,567.718 802.201,567.177 802.638,566.693C803.076,566.21 803.479,565.807 803.848,565.484C804.308,565.116 804.769,564.793 805.229,564.517L806.957,564.517L806.957,577.645L804.193,577.645C803.548,575.434 802.65,573.43 801.498,571.634C800.531,570.114 799.241,568.72 797.629,567.453C796.017,566.187 794.059,565.553 791.756,565.553C790.374,565.553 789.015,565.933 787.68,566.693C786.344,567.453 785.158,568.743 784.121,570.563C783.085,572.382 782.256,574.8 781.634,577.818C781.012,580.835 780.701,584.577 780.701,589.045C780.701,593.559 781.024,597.314 781.668,600.308C782.313,603.302 783.212,605.708 784.363,607.528C785.515,609.347 786.874,610.637 788.44,611.397C790.006,612.157 791.687,612.537 793.484,612.537C795.142,612.537 796.731,612.18 798.251,611.466C799.771,610.752 801.13,609.785 802.328,608.564C803.525,607.344 804.481,605.95 805.195,604.384C805.909,602.818 806.266,601.16 806.266,599.409L807.993,599.409C807.993,601.39 807.59,603.279 806.784,605.075C805.978,606.872 804.861,608.449 803.433,609.808C802.005,611.167 800.324,612.249 798.389,613.055C796.455,613.862 794.359,614.265 792.102,614.265C788.463,614.265 785.192,613.712 782.29,612.606C779.388,611.501 776.924,609.877 774.897,607.735C772.87,605.593 771.316,602.956 770.233,599.824C769.151,596.692 768.61,593.099 768.61,589.045C768.61,584.992 769.139,581.399 770.199,578.267C771.258,575.134 772.755,572.497 774.69,570.355C776.625,568.213 778.928,566.59 781.599,565.484C784.271,564.379 787.219,563.826 790.443,563.826ZM985.91,564.862L985.91,565.899L981.765,566.935L981.765,611.155L985.91,612.192L985.91,613.228L966.218,613.228L966.218,612.192L970.364,611.155L970.364,573.499L954.127,613.919L952.054,613.919L930.981,573.499L930.981,610.119L936.508,612.192L936.508,613.228L923.38,613.228L923.38,612.192L928.908,610.119L928.908,566.935L924.762,565.899L924.762,564.862L933.399,564.862C934.689,564.862 935.817,565.012 936.784,565.312C937.752,565.611 938.604,566.014 939.341,566.521C940.078,567.027 940.711,567.638 941.241,568.352C941.771,569.066 942.266,569.86 942.727,570.735L957.789,599.548L969.328,570.735C969.696,569.768 970.122,568.927 970.606,568.213C971.09,567.5 971.677,566.889 972.368,566.383C973.059,565.876 973.911,565.496 974.924,565.242C975.938,564.989 977.181,564.862 978.655,564.862L985.91,564.862ZM1121.33,613.228L1121.33,612.192L1125.48,611.155L1125.48,566.59L1117.53,566.59C1117.53,568.432 1117.29,570.01 1116.81,571.323C1116.33,572.636 1115.81,573.753 1115.25,574.674C1114.61,575.733 1113.87,576.608 1113.04,577.299L1110.97,577.299L1110.97,564.862L1151.39,564.862L1151.39,577.299L1149.32,577.299C1148.44,576.608 1147.68,575.733 1147.04,574.674C1146.49,573.753 1145.98,572.636 1145.52,571.323C1145.06,570.01 1144.83,568.432 1144.83,566.59L1136.88,566.59L1136.88,611.155L1141.03,612.192L1141.03,613.228L1121.33,613.228ZM841.619,564.862L841.619,565.899L837.473,566.935L837.473,611.501L852.329,611.501C852.329,609.704 852.559,608.138 853.019,606.802C853.48,605.467 853.987,604.338 854.54,603.417C855.184,602.357 855.944,601.482 856.82,600.791L858.892,600.791L858.892,613.228L821.927,613.228L821.927,612.192L826.073,611.155L826.073,566.935L821.927,565.899L821.927,564.862L841.619,564.862ZM1024.37,588.354C1024.56,587.433 1024.81,586.546 1025.13,585.694C1025.45,584.842 1025.8,584.094 1026.17,583.449C1026.58,582.712 1027.02,582.044 1027.48,581.445L1029.56,581.445L1029.56,596.991L1027.48,596.991C1027.02,596.392 1026.58,595.724 1026.17,594.987C1025.8,594.343 1025.45,593.606 1025.13,592.776C1024.81,591.947 1024.56,591.049 1024.37,590.082L1016.43,590.082L1016.43,611.501L1032.66,611.501C1032.66,609.704 1032.89,608.138 1033.36,606.802C1033.82,605.467 1034.32,604.338 1034.88,603.417C1035.52,602.357 1036.28,601.482 1037.15,600.791L1039.23,600.791L1039.23,613.228L1000.88,613.228L1000.88,612.192L1005.03,611.155L1005.03,566.935L1000.88,565.899L1000.88,564.862L1037.85,564.862L1037.85,577.299L1035.77,577.299C1034.9,576.608 1034.14,575.733 1033.49,574.674C1032.94,573.753 1032.43,572.636 1031.97,571.323C1031.51,570.01 1031.28,568.432 1031.28,566.59L1016.43,566.59L1016.43,588.354L1024.37,588.354ZM895.627,588.354C895.812,587.433 896.065,586.546 896.387,585.694C896.71,584.842 897.055,584.094 897.424,583.449C897.838,582.712 898.276,582.044 898.737,581.445L900.809,581.445L900.809,596.991L898.737,596.991C898.276,596.392 897.838,595.724 897.424,594.987C897.055,594.343 896.71,593.606 896.387,592.776C896.065,591.947 895.812,591.049 895.627,590.082L887.682,590.082L887.682,611.501L903.919,611.501C903.919,609.704 904.149,608.138 904.61,606.802C905.07,605.467 905.577,604.338 906.13,603.417C906.775,602.357 907.535,601.482 908.41,600.791L910.483,600.791L910.483,613.228L872.135,613.228L872.135,612.192L876.281,611.155L876.281,566.935L872.135,565.899L872.135,564.862L909.101,564.862L909.101,577.299L907.028,577.299C906.153,576.608 905.393,575.733 904.748,574.674C904.195,573.753 903.688,572.636 903.228,571.323C902.767,570.01 902.537,568.432 902.537,566.59L887.682,566.59L887.682,588.354L895.627,588.354ZM900.948,551.044L891.62,561.408L889.202,561.408L891.965,551.044L900.948,551.044ZM1143.79,469.972L1138.26,467.899L1138.26,466.862L1151.39,466.862L1151.39,467.899L1145.86,469.972L1145.86,516.265L1143.79,516.265L1111.66,478.608L1111.66,512.119L1117.19,514.192L1117.19,515.228L1104.06,515.228L1104.06,514.192L1109.59,512.119L1109.59,469.281L1104.75,467.899L1104.75,466.862L1112.01,466.862C1113.39,466.862 1114.59,467.012 1115.6,467.312C1116.61,467.611 1117.5,468.002 1118.26,468.486C1119.02,468.97 1119.68,469.5 1120.23,470.075C1120.78,470.651 1121.27,471.192 1121.68,471.699L1143.79,497.609L1143.79,469.972ZM948.254,514.537C950.88,514.537 952.975,513.754 954.542,512.188C956.108,510.622 956.891,508.526 956.891,505.901C956.891,504.104 956.28,502.549 955.06,501.237C953.839,499.924 952.331,498.692 950.534,497.54C948.738,496.389 946.769,495.237 944.627,494.085C942.485,492.934 940.515,491.621 938.719,490.147C936.923,488.673 935.414,486.957 934.193,485C932.973,483.042 932.362,480.681 932.362,477.917C932.362,476.259 932.708,474.705 933.399,473.254C934.09,471.803 935.138,470.524 936.543,469.419C937.948,468.313 939.709,467.438 941.828,466.793C943.947,466.148 946.435,465.826 949.29,465.826C950.903,465.826 952.4,466.068 953.782,466.552C955.163,467.035 956.338,467.553 957.305,468.106C958.457,468.751 959.47,469.488 960.345,470.317C960.714,469.718 961.117,469.177 961.555,468.693C961.992,468.21 962.395,467.807 962.764,467.484C963.224,467.116 963.685,466.793 964.146,466.517L965.873,466.517L965.873,479.645L963.109,479.645C962.464,477.434 961.566,475.43 960.415,473.634C959.447,472.114 958.157,470.72 956.545,469.453C954.933,468.187 952.975,467.553 950.672,467.553C949.797,467.553 948.968,467.738 948.185,468.106C947.402,468.475 946.711,468.993 946.112,469.661C945.513,470.329 945.03,471.135 944.661,472.079C944.293,473.023 944.108,474.048 944.108,475.154C944.108,477.134 944.719,478.827 945.939,480.232C947.16,481.637 948.669,482.938 950.465,484.136C952.261,485.334 954.231,486.508 956.373,487.66C958.514,488.811 960.484,490.09 962.28,491.494C964.077,492.899 965.585,494.5 966.806,496.296C968.026,498.093 968.637,500.258 968.637,502.791C968.637,504.588 968.245,506.304 967.462,507.939C966.679,509.574 965.504,511.013 963.938,512.257C962.372,513.501 960.392,514.48 957.996,515.194C955.601,515.908 952.814,516.265 949.636,516.265C947.609,516.265 945.836,516.034 944.316,515.574C942.796,515.113 941.506,514.606 940.446,514.054C939.203,513.409 938.12,512.649 937.199,511.774C936.83,512.418 936.427,512.971 935.99,513.432C935.552,513.892 935.149,514.284 934.781,514.606C934.32,514.975 933.859,515.297 933.399,515.574L931.671,515.574L931.671,502.446L934.435,502.446C935.126,504.703 936.093,506.73 937.337,508.526C937.89,509.309 938.512,510.058 939.203,510.772C939.894,511.486 940.688,512.119 941.586,512.672C942.485,513.224 943.487,513.674 944.592,514.019C945.698,514.365 946.918,514.537 948.254,514.537ZM891.136,467.899L891.136,466.862L910.828,466.862L910.828,467.899L906.682,468.935L906.682,513.155L910.828,514.192L910.828,515.228L891.136,515.228L891.136,514.192L895.282,513.155L895.282,468.935L891.136,467.899ZM997.426,515.228L997.426,514.192L1001.57,513.155L1001.57,468.59L993.626,468.59C993.626,470.432 993.384,472.01 992.9,473.323C992.417,474.636 991.898,475.753 991.346,476.674C990.701,477.733 989.964,478.608 989.135,479.299L987.062,479.299L987.062,466.862L1027.48,466.862L1027.48,479.299L1025.41,479.299C1024.53,478.608 1023.77,477.733 1023.13,476.674C1022.58,475.753 1022.07,474.636 1021.61,473.323C1021.15,472.01 1020.92,470.432 1020.92,468.59L1012.97,468.59L1012.97,513.155L1017.12,514.192L1017.12,515.228L997.426,515.228ZM851.983,493.118C853.549,493.164 855.046,493.418 856.474,493.878C857.672,494.247 858.892,494.857 860.136,495.709C861.38,496.561 862.347,497.77 863.038,499.337L869.257,513.155L872.711,514.192L872.711,515.228L863.038,515.228C860.965,515.228 859.261,514.687 857.925,513.605C856.589,512.522 855.53,511.106 854.747,509.355L847.837,493.809L843.346,493.809L843.346,513.155L848.183,514.192L848.183,515.228L827.8,515.228L827.8,514.192L831.946,513.155L831.946,468.935L827.8,467.899L827.8,466.862L846.11,466.862C850.256,466.862 853.733,467.196 856.543,467.864C859.353,468.532 861.622,469.453 863.349,470.628C865.076,471.803 866.32,473.219 867.08,474.877C867.84,476.536 868.22,478.355 868.22,480.336C868.22,481.902 867.99,483.272 867.529,484.447C867.069,485.621 866.458,486.658 865.698,487.556C864.938,488.454 864.063,489.203 863.073,489.802C862.082,490.4 861.08,490.884 860.067,491.253C857.672,492.174 854.977,492.681 851.983,492.773L851.983,493.118ZM777.592,515.228L777.592,514.192L781.738,513.155L781.738,468.59L773.792,468.59C773.792,470.432 773.55,472.01 773.066,473.323C772.583,474.636 772.064,475.753 771.512,476.674C770.867,477.733 770.13,478.608 769.301,479.299L767.228,479.299L767.228,466.862L807.648,466.862L807.648,479.299L805.575,479.299C804.7,478.608 803.94,477.733 803.295,476.674C802.742,475.753 802.235,474.636 801.775,473.323C801.314,472.01 801.084,470.432 801.084,468.59L793.138,468.59L793.138,513.155L797.284,514.192L797.284,515.228L777.592,515.228ZM1051.43,514.192L1051.43,515.228L1038.65,515.228L1038.65,514.192L1044.18,512.119L1063.18,466.172L1065.25,466.172L1084.94,513.155L1088.4,514.192L1088.4,515.228L1080.11,515.228C1077.53,515.228 1075.5,514.641 1074.03,513.466C1072.55,512.292 1071.5,510.921 1070.85,509.355L1067.33,501.064L1050.81,501.064L1046.25,512.119L1051.43,514.192ZM1051.5,499.337L1066.63,499.337L1059.04,481.165L1051.5,499.337ZM846.11,492.082C849.242,492.082 851.753,491.08 853.641,489.076C855.53,487.072 856.474,484.159 856.474,480.336C856.474,476.513 855.53,473.599 853.641,471.595C851.753,469.592 849.242,468.59 846.11,468.59L843.346,468.59L843.346,492.082L846.11,492.082Z" style="fill:white;"/>
                </g>
            </g>
        </g>
    </g>
</svg>
